<svg xmlns="http://www.w3.org/2000/svg" width="32.04" height="32.04" viewBox="0 0 32.04 32.04">
  <g id="Twitter" style="mix-blend-mode: difference;isolation: isolate">
    <circle id="Oval" cx="16.02" cy="16.02" r="16.02" transform="translate(0)" fill="#fff"/>
    <path id="Twitter-2" data-name="Twitter" d="M13.144,1.264a5.409,5.409,0,0,1-1.549.425A2.7,2.7,0,0,0,12.781.2a5.389,5.389,0,0,1-1.713.654A2.7,2.7,0,0,0,6.4,2.7a2.727,2.727,0,0,0,.07.615A7.655,7.655,0,0,1,.916.494a2.7,2.7,0,0,0,.834,3.6A2.674,2.674,0,0,1,.529,3.756V3.79A2.7,2.7,0,0,0,2.692,6.434a2.692,2.692,0,0,1-.711.095,2.653,2.653,0,0,1-.507-.049A2.7,2.7,0,0,0,3.993,8.352,5.418,5.418,0,0,1,.643,9.506,5.436,5.436,0,0,1,0,9.468,7.631,7.631,0,0,0,4.134,10.68a7.62,7.62,0,0,0,7.673-7.671c0-.117,0-.233-.008-.349a5.481,5.481,0,0,0,1.346-1.4Z" transform="translate(9.448 10.68)"/>
  </g>
</svg>
