<svg xmlns="http://www.w3.org/2000/svg" width="32.04" height="32.04" viewBox="0 0 32.04 32.04">
  <g id="Instagram" style="mix-blend-mode: difference;isolation: isolate">
    <circle id="Oval" cx="16.02" cy="16.02" r="16.02" fill="#fff"/>
    <path id="Instagram-2" data-name="Instagram" d="M9.806,13.966H4.16A4.165,4.165,0,0,1,0,9.806V4.16A4.165,4.165,0,0,1,4.16,0H9.806a4.165,4.165,0,0,1,4.16,4.16V9.806A4.165,4.165,0,0,1,9.806,13.966ZM4.16,1.4A2.759,2.759,0,0,0,1.4,4.16V9.806A2.759,2.759,0,0,0,4.16,12.561H9.806a2.758,2.758,0,0,0,2.755-2.755V4.16A2.759,2.759,0,0,0,9.806,1.4Zm2.823,9.19A3.612,3.612,0,1,1,10.6,6.983,3.616,3.616,0,0,1,6.983,10.595Zm0-5.819A2.207,2.207,0,1,0,9.19,6.983,2.21,2.21,0,0,0,6.983,4.776ZM10.6,4.264a.866.866,0,1,1,.866-.865A.866.866,0,0,1,10.6,4.264Z" transform="translate(9.037 9.037)"/>
  </g>
</svg>
